<?xml version="1.0" standalone="no"?>
<!DOCTYPE svg PUBLIC "-//W3C//DTD SVG 20010904//EN"
 "http://www.w3.org/TR/2001/REC-SVG-20010904/DTD/svg10.dtd">
<svg version="1.0" xmlns="http://www.w3.org/2000/svg"
 width="1024.000000pt" height="1024.000000pt" viewBox="0 0 1024.000000 1024.000000"
 preserveAspectRatio="xMidYMid meet">

<g transform="translate(0.000000,1024.000000) scale(0.100000,-0.100000)"
fill="#000000" stroke="none">
<path d="M1975 9160 c-267 -30 -514 -155 -718 -364 -149 -152 -252 -336 -304
-543 l-28 -108 0 -2505 c0 -2378 1 -2509 18 -2589 81 -373 269 -642 580 -828
175 -105 331 -143 595 -143 l182 0 0 -243 c0 -246 10 -374 35 -460 28 -93 78
-180 145 -248 163 -165 387 -195 628 -83 102 47 145 78 672 499 583 464 630
501 666 517 23 10 420 14 1954 18 l1925 5 98 27 c227 63 376 148 537 308 207
204 316 420 349 685 8 63 11 810 11 2520 0 2093 -2 2444 -15 2528 -63 418
-353 773 -765 935 -30 12 -100 34 -155 50 l-100 27 -3120 1 c-1716 1 -3151 -2
-3190 -6z m6294 -675 c145 -46 265 -151 331 -290 46 -98 50 -140 50 -506 l0
-339 -3525 2 -3526 3 1 353 c0 342 1 355 24 427 30 93 70 156 144 228 67 64
160 113 246 132 50 11 620 14 3118 14 l3057 1 80 -25z m381 -3342 c0 -1213 -4
-1901 -10 -1943 -24 -155 -136 -309 -279 -384 -133 -70 -5 -66 -2086 -66
-2053 0 -1951 2 -2071 -58 -55 -28 -447 -319 -997 -742 -126 -96 -233 -176
-238 -178 -5 -2 -9 151 -9 385 0 440 -2 452 -72 523 -67 66 -91 70 -483 70
-384 0 -446 8 -553 73 -112 66 -215 211 -241 335 -8 38 -11 609 -11 1957 l0
1905 3525 0 3525 0 0 -1877z"/>
<path d="M2310 8099 c-104 -31 -160 -137 -131 -246 43 -160 259 -194 355 -56
40 58 43 147 6 211 -43 76 -145 116 -230 91z"/>
<path d="M3015 8096 c-73 -27 -135 -115 -135 -192 0 -63 51 -144 110 -174 43
-22 122 -26 167 -9 92 34 145 153 111 250 -36 104 -152 161 -253 125z"/>
<path d="M3740 8099 c-117 -35 -173 -170 -117 -279 33 -66 85 -102 152 -108
181 -15 289 174 182 319 -42 58 -144 90 -217 68z"/>
<path d="M5073 8081 c-145 -66 -128 -287 25 -331 26 -8 464 -10 1447 -8 l1410
3 35 22 c49 30 80 89 80 150 0 59 -24 107 -74 148 l-38 30 -1421 2 c-1380 3
-1423 2 -1464 -16z"/>
<path d="M4795 6604 c-22 -2 -96 -9 -165 -15 -437 -37 -816 -161 -1087 -352
-104 -75 -261 -226 -331 -322 -96 -131 -187 -332 -228 -503 -41 -178 -57 -481
-34 -672 39 -323 159 -590 373 -832 l82 -93 -1 -75 c-1 -64 -15 -124 -93 -394
-103 -352 -108 -390 -61 -456 28 -39 91 -69 146 -70 56 0 30 -17 823 528 110
76 131 81 281 59 232 -35 503 -49 800 -44 425 9 691 49 980 148 434 150 767
457 924 855 160 405 138 969 -51 1349 -137 273 -393 519 -686 659 -351 167
-674 224 -1297 231 -184 1 -353 1 -375 -1z m1501 -750 c72 -53 93 -138 52
-208 -31 -53 -63 -74 -130 -86 -37 -7 -421 -10 -1135 -8 -1030 3 -1080 4
-1116 22 -52 26 -80 69 -85 131 -6 74 22 122 93 159 27 14 150 16 1162 14
1125 -3 1132 -3 1159 -24z m-16 -696 c33 -17 51 -35 68 -68 48 -96 17 -191
-80 -241 -36 -18 -76 -19 -1146 -19 l-1109 0 -44 23 c-64 34 -91 85 -86 164 3
73 23 106 83 140 l39 23 1115 0 1116 0 44 -22z m-921 -688 c44 -12 97 -64 112
-107 24 -73 -19 -166 -93 -202 -44 -21 -52 -21 -699 -21 -690 1 -700 2 -751
47 -28 25 -58 91 -58 131 0 60 51 133 110 155 27 10 1343 8 1379 -3z"/>
</g>
</svg>
